<?xml version="1.0" encoding="utf-8"?><!-- Uploaded to: SVG Repo, www.svgrepo.com, Generator: SVG Repo Mixer Tools -->
<svg width="800px" height="800px" viewBox="0 0 64 64" xmlns="http://www.w3.org/2000/svg"><path d="m52.73 23.3c-2.87-4.38-3-9.88-5.12-11.88s-6.94-3.06-9.94-2.93-4.56 1.56-8 3.06-4.94.87-6 1a5.67 5.67 0 0 0 -1.87.56s-2.25-.75-6.13 1.38-2.61 5.74-4.06 7.06c-2.06 1.87-4.94 4.62-5.61 7.62s2.3 13.32 4.3 17.69 5.75 6.88 7.31 7a25.69 25.69 0 0 0 6.75-1.12 8.8 8.8 0 0 1 4.75.12c1.56.38 5.37 2.25 9.56 2.63s6.75-2.25 7.75-3.13a52.15 52.15 0 0 0 6.5-7.56c3.25-4.38 5.13-7.31 5.19-10.31s-2.5-6.82-5.38-11.19zm-29.68-8.94c.32-.07 1.25 0 4.06-.44s6.31-2.87 6.56-2.43.06 3.12-1.06 4.06-3.88 1.12-5.63.81-4.5-1.87-3.93-2zm29.25 28.13c-2.82 3.25-6.82 9.31-8.82 10.25a12.59 12.59 0 0 1 -7.31.81c-2.37-.5-5.06-3.38-9.25-2.94s-6.37 2.39-9.75 1.31-6.44-8.75-7.62-13.31-2.75-8.31-1.19-10.81 4.19-4.94 4.87-5.94 1.5-4.56 2.75-5.5 4.38-2.19 4.94-1.75a8.48 8.48 0 0 0 4.81 3c3.5.94 6 1.06 8.38-1.19a5.43 5.43 0 0 0 1.94-4.62 3 3 0 0 1 .56-1.38c.25-.18 8.25.32 10.06 2.63s2.25 8.75 4.94 12.75 4.19 6.06 4.19 8.62-.69 4.82-3.5 8.07zm-35.3-22.49a10.68 10.68 0 0 0 1.17-2.13c.25-.54 1.71-.62 2-.79s0-.62-.12-.91-1.92.25-2.5.58a5.88 5.88 0 0 0 -1.55 3c.11.15.73.45 1 .25zm-6 6.79a11.84 11.84 0 0 0 -1.37 2.83 8.64 8.64 0 0 0 .08 2.55c.08.54 1 .2 1.29.08s-.08-1.13-.08-2.42 1.29-2.25 1.46-2.54-1.18-.69-1.44-.47zm33.32-10.3a2.42 2.42 0 0 0 -3.5-2.59 2.5 2.5 0 0 0 -.84 4c.96.84 3.96.88 4.34-1.41zm-3-1.53a1.21 1.21 0 0 1 1.76 1.3c-.19 1.15-1.7 1.13-2.18.69a1.25 1.25 0 0 1 .43-1.95zm-9.5 8.04c.18-2-1.82-2.26-2.63-2-1.67.41-1.67 2.7-.75 3.16s3.17.91 3.38-1.16zm-2.59.28a.8.8 0 0 1 .32-1.28c.36-.09 1.22 0 1.13.89s-1.05.62-1.45.42zm-2.08 2.72c-2.54-1.13-6.12-1.51-7.54-.83a13.75 13.75 0 0 0 -5.13 5.33 7.19 7.19 0 0 0 -.5 6.33c.79 1.79 2.13 1.5 3.42 1.75a4.19 4.19 0 0 1 2.33 1.84c.42.45 2.46.37 3 .29a6.32 6.32 0 0 0 2.67-1.81c.71-.9 1.6-3.29 2.6-6.79s1.69-4.96-.85-6.11zm.5 3a58.3 58.3 0 0 1 -2.13 6.08c-.87 2.38-.87 2.92-2.16 3.71s-2.25 1.09-2.59.75a6.33 6.33 0 0 0 -2.87-2c-1.5-.37-2.63-.66-2.79-1.12a7.78 7.78 0 0 1 .37-5.38c1.17-2.08 3.59-4.58 4.84-5 .8-.3 4.25.5 5.45.88s2.05 1.08 1.88 2.15zm16.79 2.38a5.14 5.14 0 0 0 2.13-7.09 5.75 5.75 0 0 0 -7.46-2.71c-3.79 2.13-4.42 6-2.67 8.63s5.88 2.15 8 1.24zm-7.5-5c.21 0 1.33 2.37 1.67 2.29s.66-.83.54-1a16.06 16.06 0 0 1 -1.58-2.71c.12-.12.54-1.12.75-.87s1.33 3.25 1.58 3.08.67-.92.5-1.21-1.54-2.5-1.33-2.71 1.16-.91 1.33-.75.71 2.17 1 2.21a.6.6 0 0 0 .6-.51c0-.3-.5-1.88-.21-2a4.77 4.77 0 0 1 3.63 2.58c1.08 2.17.67 3.5-.08 4.54a5.68 5.68 0 0 1 -5.55 1.79 3.61 3.61 0 0 1 -2.89-2.91c-.08-.63-.17-1.71.04-1.71zm-20.87 7.02a21.16 21.16 0 0 0 1.66 3c.21.09.46 0 .75-.25s-1.25-3-1.58-3.33-.96.28-.83.58zm1.54-2.54a28.93 28.93 0 0 0 2.29 4.71.7.7 0 0 0 .5-.79 22.57 22.57 0 0 0 -2-4.42c-.25-.16-.73.21-.79.5zm1.83-2.08a38.56 38.56 0 0 0 1.71 4c.21.17.5-.17.58-.75a12.31 12.31 0 0 0 -1.5-3.87c-.23-.16-.85.42-.79.62zm2.25-1.17a6.45 6.45 0 0 0 .75 2.13c.25.29.5-.09.67-.46a4 4 0 0 0 -.46-1.92c-.13-.12-.96.01-.96.25zm12.75 8.13a1.83 1.83 0 0 0 -2.54-1.92c-1.58.75-1.75 2.42-.88 3.17s3.42.66 3.42-1.25zm-2.56.39c-.36-.3-.29-1 .36-1.29a.74.74 0 0 1 1 .78c.03.79-1 .82-1.36.51zm17.5-5.2c-2 .94-2.19 3-1.09 4s4.27.83 4.27-1.56a2.29 2.29 0 0 0 -3.18-2.44zm-.29 3.16a1.35 1.35 0 0 1 .61-2.2 1.27 1.27 0 0 1 1.77 1.33c0 1.34-1.77 1.39-2.38.87zm-24.86 9.91a2 2 0 0 0 -.75 3.41c.84.71 3.46 1.34 4-.91s-2.07-3.05-3.25-2.5zm2.37 2.29c-.33 1.38-1.94 1-2.45.56a1.25 1.25 0 0 1 .46-2.1c.72-.34 2.33.14 1.99 1.53zm18.4-4.29c-1.71-.25-3.87.62-5.75 1.16s-2.67-.57-3.54-.25a6.37 6.37 0 0 0 -2.83 3.71c-.09 1 1.54 2.38 2.33 2.75a7.12 7.12 0 0 0 3.08.46c1.55 0 2.25.71 3.25.87s1.53-.7 2.46-1.59a33 33 0 0 0 2.88-2.62 5.43 5.43 0 0 0 .41-2.63 2.37 2.37 0 0 0 -2.29-1.86zm1.29 3.7c-.16.25-1.79 1.42-2.54 2.34s-1.33 1.58-1.91 1.62-1.71-.71-2.67-.87-2.54 0-3.42-.42a2.22 2.22 0 0 1 -1.37-1.58 4.7 4.7 0 0 1 .87-2.21s.09 2.42.34 2.5.66.12.66-.08-.33-3 0-3.05.71.05.75.17-.08 3.13.25 3.17.67.16.67 0 0-3 0-3 .5 0 .58.12 0 3 .34 3.09.66 0 .66-.21a20.84 20.84 0 0 1 -.1-3.29c.17 0 1-.46 1-.29s0 2.41.21 2.41.83 0 .83-.29-.21-2.21 0-2.33 1.17-.5 1.21-.33-.08 1.62.09 1.62.66 0 .66-.29 0-1.54.17-1.58 2.25 0 2.5.54a3.89 3.89 0 0 1 .2 2.19zm-10-8.41c.12.08 1.2 3.5 1.2 3.5a2.28 2.28 0 0 0 1-.21c.3-.21-1.08-3.42-1.25-3.58s-1.19.06-.92.24zm3.41 1.37a9.85 9.85 0 0 0 -.87-3.71c-.29-.2-.9.27-1 .42a24.72 24.72 0 0 0 .91 3.46c.08.17.78.03.99-.22zm.59-4.12a13.65 13.65 0 0 0 .25 3.16c.12.34.75.05.91-.08a14.94 14.94 0 0 0 -.37-3.17c-.08-.34-.64-.13-.76.04zm5.45 5c-.08-.08-.58.71-.54.92a30.94 30.94 0 0 0 3 2.29c.67.5.73-.11.73-.54s-3.02-2.55-3.16-2.68zm1-2.38c-.25-.08-.76.32-.71.55a27 27 0 0 0 3.67 3.79c.21 0 .42-.34.63-.5s-3.33-3.76-3.6-3.85zm2.09-1c-.34-.2-.75.5-.75.5s2.45 3.17 2.66 3.3.67-.38.75-.67-2.34-2.93-2.67-3.14z" fill="#1d1d1b"/></svg>